<?xml version="1.0" encoding="UTF-8"?>
<svg version="1.1" xmlns="http://www.w3.org/2000/svg" width="512" height="512">
<path d="M0 0 C7.49052165 6.08814692 14.27437653 13.08373831 21.1171875 19.87890625 C21.6215546 20.37919783 22.12592171 20.8794894 22.64557266 21.39494133 C25.30501694 24.03375769 27.9613406 26.67567042 30.61523438 29.32006836 C33.33678011 32.03047655 36.06983173 34.72897758 38.80547905 37.42514133 C40.92952405 39.52296231 43.04455905 41.62969706 45.15732193 43.73887444 C46.16098122 44.73769876 47.16798352 45.73317669 48.17852402 46.72503853 C56.37721861 54.78126821 62.06222451 61.76384794 62.25 73.625 C62.13487535 83.08824644 59.88347317 91.23270359 53 98 C46.64457192 103.01744322 40.07999653 105.56843708 32 106 C31.04432129 105.79004395 30.08864258 105.58008789 29.10400391 105.36376953 C24.88113384 104.44277079 21.10654387 103.76447345 17.20901489 106.05044556 C12.55223499 109.68081502 8.64602102 114.07973709 4.6875 118.4375 C3.44930305 119.74600671 2.20778968 121.05138359 0.96289062 122.35351562 C-2.06427031 125.53412486 -5.04311974 128.75400821 -8 132 C-6.49596095 135.18880867 -5.12991436 136.96490973 -2.375 139.1875 C10.18847318 149.9824404 10.18847318 149.9824404 11.1875 157.0625 C11.26735371 164.47748768 9.43404861 168.74035071 4.25854492 174.11962891 C0.03648181 178.33242529 -4.40332199 182.29584099 -8.94140625 186.1640625 C-13.14632503 189.91417982 -17.0539476 193.98117205 -21 198 C-19.87659814 199.98007423 -18.751133 201.95897779 -17.625 203.9375 C-17.27066895 204.56213135 -16.91633789 205.1867627 -16.55126953 205.83032227 C-14.56654191 209.31367799 -12.54527561 212.76745471 -10.453125 216.1875 C10.17663538 250.02061971 15.39994649 291.84532314 6.44775391 330.37695312 C3.89874981 340.79443686 0.80980487 351.38039026 -4 361 C-4.66 361 -5.32 361 -6 361 C-6.23589844 361.81082031 -6.47179687 362.62164062 -6.71484375 363.45703125 C-11.0883779 375.51416036 -18.43199285 386.54822987 -27 396 C-27.79921875 396.90621094 -28.5984375 397.81242187 -29.421875 398.74609375 C-32.84980697 402.60531781 -36.32483466 406.37438746 -40 410 C-39.74476563 410.78697266 -39.74476563 410.78697266 -39.484375 411.58984375 C-37.74889932 417.13782718 -36.22582623 422.73749702 -34.8125 428.375 C-34.63364258 429.04523193 -34.45478516 429.71546387 -34.27050781 430.40600586 C-32.75984409 436.60252467 -32.82569831 442.64900734 -33 449 C-32.40833038 448.99111755 -31.81666077 448.98223511 -31.20706177 448.9730835 C-25.00955943 448.88410317 -18.81224064 448.82405687 -12.61425781 448.78027344 C-10.30591451 448.76024583 -7.99762138 448.73301561 -5.68945312 448.69824219 C-2.35794643 448.64933406 0.97288538 448.62694189 4.3046875 448.609375 C5.834991 448.57840729 5.834991 448.57840729 7.39620972 448.54681396 C15.85786679 448.54420602 23.15317923 450.36801651 29.75 455.875 C35.11468087 461.7876174 39.16140876 470.61672229 39.6875 478.625 C39.08989804 486.4084011 35.21073095 494.30521208 30 500 C27.52734375 501.765625 27.52734375 501.765625 24.9375 503.25 C24.08027344 503.75015625 23.22304688 504.2503125 22.33984375 504.765625 C18.25728028 506.91936466 15.13867415 507.12659462 10.57804585 507.13142776 C9.92020372 507.1334804 9.2623616 507.13553303 8.58458486 507.13764787 C6.36474638 507.1433339 4.14496963 507.14185865 1.92512512 507.14044189 C0.32368943 507.14302462 -1.27774562 507.14603752 -2.87917978 507.1494453 C-7.29217226 507.15752956 -11.70514848 507.15930566 -16.11814749 507.16004276 C-20.87289787 507.16189086 -25.62763976 507.169437 -30.38238525 507.17617798 C-40.78530439 507.1897723 -51.18821969 507.19578783 -61.59114623 507.20018864 C-68.08473972 507.2029494 -74.57833172 507.20718646 -81.07192421 507.21169281 C-99.04454931 507.22388728 -117.01717321 507.234186 -134.98980236 507.2375679 C-136.14058528 507.23778747 -137.2913682 507.23800703 -138.47702332 507.23823325 C-140.20737351 507.23856067 -140.20737351 507.23856067 -141.97268027 507.2388947 C-144.31031875 507.23933817 -146.64795723 507.23978473 -148.9855957 507.24023438 C-150.72492694 507.24056652 -150.72492694 507.24056652 -152.49939618 507.24090537 C-171.288778 507.24485346 -190.07812103 507.26230702 -208.86748787 507.2855939 C-228.15015463 507.30929957 -247.43280192 507.32176941 -266.71548349 507.32293582 C-277.54522424 507.32385306 -288.37491449 507.32961767 -299.20464134 507.34775543 C-308.42663859 507.36314587 -317.64856971 507.36828315 -326.87057736 507.36001733 C-331.57633331 507.35610699 -336.28195607 507.35705915 -340.98769569 507.37107468 C-345.29647396 507.38379057 -349.60501863 507.38263643 -353.91379646 507.37048396 C-355.47171453 507.36852295 -357.02964901 507.37162408 -358.58754399 507.38032833 C-369.73450448 507.43866009 -377.72426956 506.76792913 -386.171875 498.90234375 C-393.53208923 491.2433174 -394.39987144 485.02211021 -394.20703125 474.62890625 C-393.74937545 466.60697727 -389.50751088 460.69963335 -384 455 C-378.31792341 450.62438628 -373.07788125 449.33704196 -366 449 C-365.67 446.36 -365.34 443.72 -365 441 C-365.64324219 441.144375 -366.28648437 441.28875 -366.94921875 441.4375 C-375.37534215 443.16840124 -384.33741752 444.60778706 -392.625 441.75 C-396.09864332 439.19047334 -397.63981862 437.08054414 -399 433 C-399.7575609 426.90704589 -399.48962704 421.75557138 -395.68214417 416.74653625 C-389.30100832 410.12113201 -375.47602041 410.45802295 -366.75390625 409.30078125 C-364.97460811 409.05901635 -363.19538872 408.81667125 -361.41624451 408.57377625 C-357.69936322 408.06829059 -353.98173317 407.56887267 -350.26342773 407.07397461 C-345.52023177 406.44230773 -340.7790198 405.79697113 -336.03827 405.14722919 C-332.36787893 404.64548951 -328.69662238 404.15033682 -325.02506828 403.65718651 C-323.27748765 403.42180904 -321.53015235 403.18460199 -319.78308296 402.94545937 C-296.54349792 399.77535285 -296.54349792 399.77535285 -290.625 402.625 C-287.05517999 405.85483715 -284.41305051 408.45004529 -283.6171875 413.36328125 C-283.39353236 418.27623923 -283.81168044 422.41504297 -286.63671875 426.53125 C-292.35089709 432.68749945 -300.11276515 432.62431886 -308 432.921875 C-308.99 432.94765625 -309.98 432.9734375 -311 433 C-310.71125 433.90363281 -310.4225 434.80726563 -310.125 435.73828125 C-309.75375 436.91777344 -309.3825 438.09726562 -309 439.3125 C-308.62875 440.48425781 -308.2575 441.65601563 -307.875 442.86328125 C-307 446 -307 446 -307 449 C-272.35 449 -237.7 449 -202 449 C-201.67 446.69 -201.34 444.38 -201 442 C-201.61488281 441.79503906 -202.22976562 441.59007812 -202.86328125 441.37890625 C-206.2421875 440.25260417 -209.62109375 439.12630208 -213 438 C-214.81457168 437.82904716 -216.62937293 437.65995898 -218.44555664 437.50708008 C-233.67806354 436.10697536 -241.54327663 428.19019577 -251.1875 417.0390625 C-255.37409166 412.32914688 -259.84854385 407.98050779 -264.625 403.875 C-269.65963731 399.49251476 -274.35511652 394.79116781 -279.0625 390.0625 C-280.35124023 388.77956055 -280.35124023 388.77956055 -281.66601562 387.47070312 C-286.10414957 383.02578822 -290.40772825 378.52572039 -294.48242188 373.74414062 C-298.20704935 369.4634555 -302.27853732 365.58352205 -306.59375 361.90625 C-311.63739616 357.51171129 -316.34471456 352.8016168 -321.0625 348.0625 C-322.35124023 346.77956055 -322.35124023 346.77956055 -323.66601562 345.47070312 C-328.12590213 341.00400243 -332.43075049 336.46870441 -336.54516602 331.68188477 C-338.2691902 329.68879824 -340.07018514 327.7966428 -341.9375 325.9375 C-342.52402344 325.34839844 -343.11054688 324.75929688 -343.71484375 324.15234375 C-345.64603672 322.33339105 -347.61397754 320.60353432 -349.625 318.875 C-354.65963731 314.49251476 -359.35511652 309.79116781 -364.0625 305.0625 C-365.35124023 303.77956055 -365.35124023 303.77956055 -366.66601562 302.47070312 C-388.18480119 280.91903935 -388.18480119 280.91903935 -388.4375 266.8125 C-388.29383417 257.6627823 -385.85741906 250.75295971 -379.625 244 C-373.32767151 238.27764498 -365.79626323 236.65060194 -357.4609375 236.7890625 C-345.24348296 237.83627289 -338.20460908 244.4663017 -330.34521484 253.19140625 C-325.15386576 258.92594344 -319.71754959 264.40459355 -314.25 269.875 C-313.3628833 270.76646729 -312.4757666 271.65793457 -311.56176758 272.57641602 C-307.73095317 276.39934293 -303.89291968 280.15409959 -299.78515625 283.6796875 C-295.96476077 286.96267493 -292.57722878 290.53028499 -289.1875 294.25 C-283.27013085 300.64771222 -277.22019367 306.8957695 -271.0625 313.0625 C-270.28221436 313.8472168 -269.50192871 314.63193359 -268.69799805 315.44042969 C-265.18888171 318.94093332 -261.65405219 322.34738549 -257.890625 325.57421875 C-253.86117349 329.0461674 -250.28021491 332.83431305 -246.6875 336.75 C-240.57328063 343.32586345 -234.34461221 349.77104741 -228 356.125 C-227.22358154 356.90584961 -226.44716309 357.68669922 -225.6472168 358.49121094 C-222.16618347 361.96364173 -218.65919664 365.34218548 -214.92578125 368.54296875 C-210.72209398 372.16428646 -206.9519387 376.11732009 -203.1875 380.1875 C-202.53330078 380.88552734 -201.87910156 381.58355469 -201.20507812 382.30273438 C-196.3255602 387.54111368 -196.3255602 387.54111368 -194.45239258 390.18139648 C-193.09787684 392.23438627 -193.09787684 392.23438627 -190.46875 392.7421875 C-185.37508307 392.97006207 -182.19391115 392.84778365 -177.94140625 389.828125 C-176.06603949 388.06726503 -174.23897821 386.25303576 -172.47265625 384.3828125 C-170 382 -170 382 -167.30859375 380.9296875 C-164.85359343 380.24994045 -164.85359343 380.24994045 -164.15234375 378.12890625 C-162.30169231 374.70990613 -158.94428533 373.55302229 -155.5625 371.9375 C-154.84328369 371.58679443 -154.12406738 371.23608887 -153.38305664 370.87475586 C-135.24713476 362.26317818 -112.49969411 361.00394502 -93.26611328 366.66479492 C-89.4546851 367.78220747 -86.81181872 368.27060624 -83 367 C-65.26187306 354.90582254 -55.49221831 330.71823865 -51.56640625 310.55078125 C-48.14507178 289.10255343 -50.66783413 262.00467028 -63.6484375 243.671875 C-64.09445312 243.12015625 -64.54046875 242.5684375 -65 242 C-69.32516517 246.23689649 -73.61564146 250.46696795 -77.5625 255.0625 C-82.23503046 260.48866441 -87.22941888 265.48639919 -92.65625 270.15625 C-97.502631 274.37486435 -102.03164072 278.88494467 -106.5625 283.4375 C-107.37396484 284.24509766 -108.18542969 285.05269531 -109.02148438 285.88476562 C-113.35435238 290.22462777 -117.522753 294.64381074 -121.52319336 299.29174805 C-133.98473958 313.70626928 -133.98473958 313.70626928 -143 315 C-147.84037762 315.26522617 -150.80638202 314.39635313 -155 312 C-155.47332764 311.47188721 -155.94665527 310.94377441 -156.43432617 310.3996582 C-157.89466684 308.83517465 -157.89466684 308.83517465 -159.91918945 308.71948242 C-160.64323975 308.76435791 -161.36729004 308.8092334 -162.11328125 308.85546875 C-163.35053955 308.92229858 -163.35053955 308.92229858 -164.61279297 308.99047852 C-165.50369629 309.05549561 -166.39459961 309.1205127 -167.3125 309.1875 C-168.70299561 309.27052368 -168.70299561 309.27052368 -170.12158203 309.35522461 C-176.88611525 309.78319415 -183.62866933 310.41480039 -190.375 311.0625 C-214.99643512 313.35150885 -214.99643512 313.35150885 -220.3125 309.625 C-221.57987818 308.45680794 -222.80612202 307.24321178 -224 306 C-224.80953125 305.2265625 -225.6190625 304.453125 -226.453125 303.65625 C-230.87405095 299.3676871 -235.00696805 294.90288363 -239 290.21875 C-242.18859203 286.68140572 -245.59608608 283.36332628 -249.00146484 280.03564453 C-253.90844917 275.210522 -253.90844917 275.210522 -254.15039062 272.01147461 C-254.17255929 262.37642011 -253.18784618 252.83566543 -252.28173828 243.25463867 C-249.70731208 227.49998853 -249.70731208 227.49998853 -252.9375 212.9375 C-253.618125 212.298125 -254.29875 211.65875 -255 211 C-255.99407938 208.01776186 -256.23040978 205.81124878 -256.3125 202.6875 C-256.36857422 201.30111328 -256.36857422 201.30111328 -256.42578125 199.88671875 C-255.51527585 193.71365923 -250.69951246 189.42423525 -246.38671875 185.2265625 C-245.58775932 184.43540543 -245.58775932 184.43540543 -244.7726593 183.62826538 C-243.08235124 181.95561926 -241.3854835 180.28985093 -239.6875 178.625 C-237.45879931 176.43315058 -235.23354674 174.23787819 -233.01171875 172.0390625 C-232.47634491 171.51000305 -231.94097107 170.9809436 -231.38937378 170.43585205 C-228.53863727 167.59919147 -225.81255706 164.71593597 -223.20703125 161.6484375 C-221.09129771 159.16343202 -218.93177859 156.98867619 -216.4453125 154.875 C-210.56927953 149.87966402 -205.20366903 144.35247283 -199.76318359 138.89355469 C-197.87579237 137.00079462 -195.98310327 135.11345071 -194.08984375 133.2265625 C-192.86947086 132.00552888 -191.64940818 130.78418513 -190.4296875 129.5625 C-189.59508499 128.73093384 -189.59508499 128.73093384 -188.74362183 127.88256836 C-185.46400711 124.58360543 -182.38706004 121.18309938 -179.42405701 117.59617615 C-177.90529463 115.89384803 -176.28557345 114.44274119 -174.54296875 112.97265625 C-168.46570358 107.79433494 -162.91368957 102.06238292 -157.28100586 96.41137695 C-155.31020512 94.43519886 -153.33409344 92.46444452 -151.35742188 90.49414062 C-150.08822078 89.22427897 -148.81932979 87.95410728 -147.55078125 86.68359375 C-146.96734451 86.10218124 -146.38390778 85.52076874 -145.78279114 84.92173767 C-143.17315748 82.29726645 -140.66817084 79.65738821 -138.32592773 76.79003906 C-136.38959179 74.46733022 -134.5515778 72.59126568 -132.234375 70.67578125 C-126.83213913 66.06612693 -121.95033528 60.96532317 -117.00390625 55.87695312 C-116.28589844 55.14798828 -115.56789063 54.41902344 -114.828125 53.66796875 C-114.1877832 53.01078857 -113.54744141 52.3536084 -112.88769531 51.67651367 C-108.53565408 47.8113472 -104.53282357 47.42803377 -98.859375 47.578125 C-89.00240757 49.03243167 -81.55831307 59.14206857 -75 66 C-69.0568412 61.08484705 -63.65883912 55.74243787 -58.25 50.25 C-56.57005378 48.54456143 -54.88786202 46.84133109 -53.203125 45.140625 C-52.46739258 44.39329102 -51.73166016 43.64595703 -50.97363281 42.87597656 C-49 41 -49 41 -46 39 C-46.23783203 37.96939453 -46.23783203 37.96939453 -46.48046875 36.91796875 C-48.14412274 27.57398731 -47.89344154 18.29006566 -43 10 C-33.69184128 -3.27103818 -14.61916397 -8.2074322 0 0 Z " fill="#8899A5" transform="translate(432,5)"/>
<path d="M0 0 C7.49052165 6.08814692 14.27437653 13.08373831 21.1171875 19.87890625 C21.6215546 20.37919783 22.12592171 20.8794894 22.64557266 21.39494133 C25.30501694 24.03375769 27.9613406 26.67567042 30.61523438 29.32006836 C33.33678011 32.03047655 36.06983173 34.72897758 38.80547905 37.42514133 C40.92952405 39.52296231 43.04455905 41.62969706 45.15732193 43.73887444 C46.16098122 44.73769876 47.16798352 45.73317669 48.17852402 46.72503853 C56.37721861 54.78126821 62.06222451 61.76384794 62.25 73.625 C62.13487535 83.08824644 59.88347317 91.23270359 53 98 C46.64457192 103.01744322 40.07999653 105.56843708 32 106 C31.04432129 105.79004395 30.08864258 105.58008789 29.10400391 105.36376953 C24.88113384 104.44277079 21.10654387 103.76447345 17.20901489 106.05044556 C12.55223499 109.68081502 8.64602102 114.07973709 4.6875 118.4375 C3.44930305 119.74600671 2.20778968 121.05138359 0.96289062 122.35351562 C-2.06427031 125.53412486 -5.04311974 128.75400821 -8 132 C-6.49596095 135.18880867 -5.12991436 136.96490973 -2.375 139.1875 C10.18847318 149.9824404 10.18847318 149.9824404 11.1875 157.0625 C11.26735199 164.47732765 9.43417317 168.74019455 4.25878906 174.11938477 C0.05183502 178.3171068 -4.37077719 182.26570161 -8.8984375 186.11328125 C-12.5363777 189.37931306 -15.89618204 192.93196584 -19.2890625 196.44921875 C-22 199 -22 199 -24.6472168 200.65380859 C-29.0711108 203.55508539 -32.63978511 207.35402457 -36.35546875 211.08984375 C-37.13892166 211.87138321 -37.92237457 212.65292267 -38.72956848 213.45814514 C-40.37840533 215.10562545 -42.02473704 216.75561633 -43.66870117 218.40795898 C-46.18252608 220.93250487 -48.70685493 223.44619143 -51.23242188 225.95898438 C-52.83657927 227.56446318 -54.44011626 229.17056217 -56.04296875 230.77734375 C-56.79611862 231.52644516 -57.54926849 232.27554657 -58.32524109 233.04734802 C-61.75009175 236.50299271 -64.71532303 239.6545049 -67 244 C-68.578125 245.73828125 -68.578125 245.73828125 -70.25 247.3125 C-72.77859887 249.76158318 -75.14691962 252.26428262 -77.4375 254.9375 C-82.16046627 260.39842975 -87.18411614 265.44741566 -92.65625 270.15625 C-97.502631 274.37486435 -102.03164072 278.88494467 -106.5625 283.4375 C-107.37396484 284.24509766 -108.18542969 285.05269531 -109.02148438 285.88476562 C-113.35435238 290.22462777 -117.522753 294.64381074 -121.52319336 299.29174805 C-133.98473958 313.70626928 -133.98473958 313.70626928 -143 315 C-147.84037762 315.26522617 -150.80638202 314.39635313 -155 312 C-155.47332764 311.47188721 -155.94665527 310.94377441 -156.43432617 310.3996582 C-157.89466684 308.83517465 -157.89466684 308.83517465 -159.91918945 308.71948242 C-160.64323975 308.76435791 -161.36729004 308.8092334 -162.11328125 308.85546875 C-163.35053955 308.92229858 -163.35053955 308.92229858 -164.61279297 308.99047852 C-165.50369629 309.05549561 -166.39459961 309.1205127 -167.3125 309.1875 C-168.70299561 309.27052368 -168.70299561 309.27052368 -170.12158203 309.35522461 C-176.88611525 309.78319415 -183.62866933 310.41480039 -190.375 311.0625 C-214.99643512 313.35150885 -214.99643512 313.35150885 -220.3125 309.625 C-221.57987818 308.45680794 -222.80612202 307.24321178 -224 306 C-225.21429688 304.83984375 -225.21429688 304.83984375 -226.453125 303.65625 C-230.87405095 299.3676871 -235.00696805 294.90288363 -239 290.21875 C-242.18859203 286.68140572 -245.59608608 283.36332628 -249.00146484 280.03564453 C-253.90844917 275.210522 -253.90844917 275.210522 -254.15039062 272.01147461 C-254.17255929 262.37642011 -253.18784618 252.83566543 -252.28173828 243.25463867 C-249.70731208 227.49998853 -249.70731208 227.49998853 -252.9375 212.9375 C-253.9584375 211.9784375 -253.9584375 211.9784375 -255 211 C-255.99407938 208.01776186 -256.23040978 205.81124878 -256.3125 202.6875 C-256.34988281 201.76324219 -256.38726562 200.83898437 -256.42578125 199.88671875 C-255.51527585 193.71365923 -250.69951246 189.42423525 -246.38671875 185.2265625 C-245.58775932 184.43540543 -245.58775932 184.43540543 -244.7726593 183.62826538 C-243.08235124 181.95561926 -241.3854835 180.28985093 -239.6875 178.625 C-237.45879931 176.43315058 -235.23354674 174.23787819 -233.01171875 172.0390625 C-232.47634491 171.51000305 -231.94097107 170.9809436 -231.38937378 170.43585205 C-228.53863727 167.59919147 -225.81255706 164.71593597 -223.20703125 161.6484375 C-221.09129771 159.16343202 -218.93177859 156.98867619 -216.4453125 154.875 C-210.56927953 149.87966402 -205.20366903 144.35247283 -199.76318359 138.89355469 C-197.87579237 137.00079462 -195.98310327 135.11345071 -194.08984375 133.2265625 C-192.86947086 132.00552888 -191.64940818 130.78418513 -190.4296875 129.5625 C-189.59508499 128.73093384 -189.59508499 128.73093384 -188.74362183 127.88256836 C-185.46400711 124.58360543 -182.38706004 121.18309938 -179.42405701 117.59617615 C-177.90529463 115.89384803 -176.28557345 114.44274119 -174.54296875 112.97265625 C-168.46570358 107.79433494 -162.91368957 102.06238292 -157.28100586 96.41137695 C-155.31020512 94.43519886 -153.33409344 92.46444452 -151.35742188 90.49414062 C-150.08822078 89.22427897 -148.81932979 87.95410728 -147.55078125 86.68359375 C-146.96734451 86.10218124 -146.38390778 85.52076874 -145.78279114 84.92173767 C-143.17315748 82.29726645 -140.66817084 79.65738821 -138.32592773 76.79003906 C-136.38959179 74.46733022 -134.5515778 72.59126568 -132.234375 70.67578125 C-126.83213913 66.06612693 -121.95033528 60.96532317 -117.00390625 55.87695312 C-116.28589844 55.14798828 -115.56789063 54.41902344 -114.828125 53.66796875 C-114.1877832 53.01078857 -113.54744141 52.3536084 -112.88769531 51.67651367 C-108.53565408 47.8113472 -104.53282357 47.42803377 -98.859375 47.578125 C-89.00240757 49.03243167 -81.55831307 59.14206857 -75 66 C-69.0568412 61.08484705 -63.65883912 55.74243787 -58.25 50.25 C-56.57005378 48.54456143 -54.88786202 46.84133109 -53.203125 45.140625 C-52.46739258 44.39329102 -51.73166016 43.64595703 -50.97363281 42.87597656 C-49 41 -49 41 -46 39 C-46.15855469 38.31292969 -46.31710937 37.62585937 -46.48046875 36.91796875 C-48.14412274 27.57398731 -47.89344154 18.29006566 -43 10 C-33.69184128 -3.27103818 -14.61916397 -8.2074322 0 0 Z " fill="#A9B7C1" transform="translate(432,5)"/>
<path d="M0 0 C3.97539656 3.23834078 7.35696769 7.0165663 10.77978516 10.81640625 C15.97113424 16.55094344 21.40745041 22.02959355 26.875 27.5 C27.7621167 28.39146729 28.6492334 29.28293457 29.56323242 30.20141602 C33.39404683 34.02434293 37.23208032 37.77909959 41.33984375 41.3046875 C45.16023923 44.58767493 48.54777122 48.15528499 51.9375 51.875 C57.85486915 58.27271222 63.90480633 64.5207695 70.0625 70.6875 C71.23292847 71.8645752 71.23292847 71.8645752 72.42700195 73.06542969 C75.93611829 76.56593332 79.47094781 79.97238549 83.234375 83.19921875 C87.26382651 86.6711674 90.84478509 90.45931305 94.4375 94.375 C100.55171937 100.95086345 106.78038779 107.39604741 113.125 113.75 C113.90141846 114.53084961 114.67783691 115.31169922 115.4777832 116.11621094 C118.95920261 119.58902686 122.46696028 122.96890874 126.19921875 126.171875 C130.38910585 129.78234277 134.17129888 133.70467941 137.9375 137.75 C138.59169922 138.43964844 139.24589844 139.12929688 139.91992188 139.83984375 C148.03510739 148.51040968 151.74024855 156.7411016 151.41796875 168.7421875 C150.99597232 172.89463238 150.02176919 175.90171232 148.125 179.625 C147.135 179.955 146.145 180.285 145.125 180.625 C144.44013275 181.94907669 143.77629797 183.28409241 143.125 184.625 C139.78014525 188.90641408 135.16053845 190.88157232 130.125 192.625 C129.135 192.625 128.145 192.625 127.125 192.625 C127.125 193.285 127.125 193.945 127.125 194.625 C118.06206371 195.24527701 110.96816061 194.29474052 103.59375 188.70703125 C98.3882346 184.16827168 93.77123626 179.14899537 89.2109375 173.97265625 C85.25410744 169.51936998 81.07136744 165.40292109 76.5390625 161.5390625 C71.49316149 157.14151425 66.78288561 152.42922872 62.0625 147.6875 C60.77375977 146.40456055 60.77375977 146.40456055 59.45898438 145.09570312 C55.02085043 140.65078822 50.71727175 136.15072039 46.64257812 131.36914062 C42.91795065 127.0884555 38.84646268 123.20852205 34.53125 119.53125 C29.48760384 115.13671129 24.78028544 110.4266168 20.0625 105.6875 C19.20333984 104.83220703 18.34417969 103.97691406 17.45898438 103.09570312 C12.99909787 98.62900243 8.69424951 94.09370441 4.57983398 89.30688477 C2.8558098 87.31379824 1.05481486 85.4216428 -0.8125 83.5625 C-1.39902344 82.97339844 -1.98554687 82.38429688 -2.58984375 81.77734375 C-4.52103672 79.95839105 -6.48897754 78.22853432 -8.5 76.5 C-13.53463731 72.11751476 -18.23011652 67.41616781 -22.9375 62.6875 C-23.79666016 61.83220703 -24.65582031 60.97691406 -25.54101562 60.09570312 C-47.05980119 38.54403935 -47.05980119 38.54403935 -47.3125 24.4375 C-47.16883417 15.2877823 -44.73241906 8.37795971 -38.5 1.625 C-28.08435023 -7.83965566 -11.38995675 -7.82912141 0 0 Z " fill="#67757F" transform="translate(90.875,247.375)"/>
<path d="M0 0 C7.49052165 6.08814692 14.27437653 13.08373831 21.1171875 19.87890625 C21.6215546 20.37919783 22.12592171 20.8794894 22.64557266 21.39494133 C25.30501694 24.03375769 27.9613406 26.67567042 30.61523438 29.32006836 C33.33678011 32.03047655 36.06983173 34.72897758 38.80547905 37.42514133 C40.92952405 39.52296231 43.04455905 41.62969706 45.15732193 43.73887444 C46.16098122 44.73769876 47.16798352 45.73317669 48.17852402 46.72503853 C56.37721861 54.78126821 62.06222451 61.76384794 62.25 73.625 C62.13487535 83.08824644 59.88347317 91.23270359 53 98 C46.64692841 103.01558283 40.07855112 105.57341625 32 106 C31.05012207 105.78424316 30.10024414 105.56848633 29.12158203 105.34619141 C24.84932936 104.39110467 21.09785062 103.75015197 17.16799927 106.09146118 C12.3566108 109.87269689 8.29875624 114.42773924 4.1875 118.9375 C2.9011202 120.2941844 1.61143049 121.64773852 0.31835938 122.99804688 C-2.82717871 126.29708121 -5.92458274 129.63555767 -9 133 C-13.06689046 130.78814225 -16.03652547 128.18467704 -19.2734375 124.88671875 C-20.00368637 124.14866753 -20.00368637 124.14866753 -20.74868774 123.39570618 C-22.29567146 121.83102734 -23.83577996 120.25981376 -25.375 118.6875 C-27.40020516 116.62549039 -29.42871571 114.56681348 -31.4609375 112.51171875 C-31.94666229 112.02008743 -32.43238708 111.52845612 -32.93283081 111.02192688 C-36.46919906 107.4687959 -40.16346979 104.22066615 -44 101 C-45.8203125 99.05859375 -45.8203125 99.05859375 -47.125 97.4375 C-49.09577495 95.00610014 -51.18535082 92.77222436 -53.41210938 90.57250977 C-55.40629559 88.59763993 -57.3800652 86.60303047 -59.35546875 84.609375 C-60.96608612 82.98952395 -62.57676472 81.3697338 -64.1875 79.75 C-65.41629883 78.50863281 -65.41629883 78.50863281 -66.66992188 77.2421875 C-67.45302734 76.45585938 -68.23613281 75.66953125 -69.04296875 74.859375 C-69.75477295 74.14233398 -70.46657715 73.42529297 -71.19995117 72.68652344 C-72.90424776 70.92904829 -72.90424776 70.92904829 -75 70 C-74.57139146 65.57544108 -71.55056941 63.15258825 -68.5390625 60.2109375 C-67.99269135 59.66643951 -67.44632019 59.12194153 -66.88339233 58.5609436 C-65.72849019 57.41275469 -64.57000032 56.26816477 -63.40820312 55.12695312 C-61.63151346 53.38139931 -59.86569793 51.62541952 -58.1015625 49.8671875 C-56.9771824 48.75197882 -55.85220218 47.63737481 -54.7265625 46.5234375 C-54.19833893 45.99946381 -53.67011536 45.47549011 -53.12588501 44.93563843 C-50.83737373 42.69136078 -48.67702495 40.7846833 -46 39 C-46.15855469 38.31292969 -46.31710937 37.62585937 -46.48046875 36.91796875 C-48.14412274 27.57398731 -47.89344154 18.29006566 -43 10 C-33.69184128 -3.27103818 -14.61916397 -8.2074322 0 0 Z " fill="#A9B7C1" transform="translate(432,5)"/>
<path d="M0 0 C3.22887014 1.42031286 5.37976559 3.13224806 7.86412048 5.62361145 C8.99744057 6.75280754 8.99744057 6.75280754 10.15365601 7.90481567 C10.97298615 8.73133636 11.79231628 9.55785706 12.63647461 10.40942383 C13.5068486 11.27950577 14.3772226 12.14958771 15.27397156 13.04603577 C17.65780791 15.43102649 20.03711846 17.82036972 22.41453624 20.21174836 C24.90701013 22.7167455 27.4051686 25.21606049 29.90272522 27.71598816 C34.63576927 32.45524939 39.36369501 37.19958279 44.08980042 41.94576234 C49.45040401 47.32864862 54.81661902 52.70592553 60.18334949 58.08270228 C69.36356528 67.2802928 78.53955399 76.48207876 87.71081543 85.68859863 C92.3082948 90.30399593 92.3082948 90.30399593 96.91308594 94.91209412 C99.05481552 97.05484157 101.17184517 99.21986986 103.28515625 101.390625 C104.87742297 103.01059479 106.46987555 104.63038191 108.0625 106.25 C109.26616211 107.49136719 109.26616211 107.49136719 110.49414062 108.7578125 C111.27080078 109.54414063 112.04746094 110.33046875 112.84765625 111.140625 C113.54898682 111.85766602 114.25031738 112.57470703 114.97290039 113.31347656 C117.04895729 115.0407319 118.36028355 115.60750464 121 116 C117.86531983 123.9221917 107.43028996 133.00965909 100 137 C93.5225488 138.65628638 88.78990076 138.30851472 83 135 C82.29000854 134.20783081 82.29000854 134.20783081 81.56567383 133.3996582 C80.10533316 131.83517465 80.10533316 131.83517465 78.08081055 131.71948242 C77.35676025 131.76435791 76.63270996 131.8092334 75.88671875 131.85546875 C74.64946045 131.92229858 74.64946045 131.92229858 73.38720703 131.99047852 C72.49630371 132.05549561 71.60540039 132.1205127 70.6875 132.1875 C69.76050293 132.24284912 68.83350586 132.29819824 67.87841797 132.35522461 C61.11388475 132.78319415 54.37133067 133.41480039 47.625 134.0625 C23.00356488 136.35150885 23.00356488 136.35150885 17.6875 132.625 C16.42012182 131.45680794 15.19387798 130.24321178 14 129 C12.78570312 127.83984375 12.78570312 127.83984375 11.546875 126.65625 C7.12594905 122.3676871 2.99303195 117.90288363 -1 113.21875 C-4.18859203 109.68140572 -7.59608608 106.36332628 -11.00146484 103.03564453 C-15.90844917 98.210522 -15.90844917 98.210522 -16.15039062 95.01147461 C-16.17255929 85.37642011 -15.18784618 75.83566543 -14.28173828 66.25463867 C-11.70731208 50.49998853 -11.70731208 50.49998853 -14.9375 35.9375 C-15.9584375 34.9784375 -15.9584375 34.9784375 -17 34 C-17.99407938 31.01776186 -18.23040978 28.81124878 -18.3125 25.6875 C-18.34988281 24.76324219 -18.38726562 23.83898437 -18.42578125 22.88671875 C-17.40521095 15.96743937 -11.54268574 11.29104974 -6.75 6.625 C-6.1003125 5.98433594 -5.450625 5.34367188 -4.78125 4.68359375 C-3.19199115 3.11770636 -1.59823583 1.55671491 0 0 Z " fill="#A9B7C1" transform="translate(194,182)"/>
<path d="M0 0 C6.35199136 5.24997324 12.16667237 10.99758467 18 16.80712891 C19.09606549 17.89527897 20.19230753 18.98325121 21.28871155 20.07106018 C24.8628434 23.61917956 28.43170935 27.17257019 32 30.7265625 C33.2317543 31.9529521 34.46351499 33.17933528 35.69528198 34.40571213 C40.81388578 39.50273465 45.93106922 44.60117607 51.04454041 49.70334816 C58.36537139 57.00789067 65.69460156 64.3037706 73.03561974 71.58802664 C78.20450709 76.71830153 83.36385678 81.85804329 88.51612282 87.00501001 C91.59226797 90.07749525 94.67248866 93.14562264 97.76293945 96.20372391 C100.66309015 99.07394044 103.55130145 101.95564083 106.43060112 104.84676933 C107.49093697 105.90732702 108.55559151 106.96358637 109.62474251 108.01525688 C111.07907291 109.44708452 112.51673821 110.89578166 113.95336914 112.34536743 C114.76375137 113.15243952 115.57413361 113.9595116 116.40907288 114.79104042 C118 117 118 117 117.86405945 119.1535244 C115.70763347 123.76175821 111.30461359 127.20585655 107.75 130.75 C106.89019531 131.63816406 106.03039062 132.52632812 105.14453125 133.44140625 C104.30792969 134.28058594 103.47132813 135.11976563 102.609375 135.984375 C101.84592773 136.75491211 101.08248047 137.52544922 100.29589844 138.31933594 C98 140 98 140 95.50488281 140.51342773 C92.07415335 139.81022851 90.73689128 138.30656997 88.3125 135.80078125 C87.01699219 134.48110352 87.01699219 134.48110352 85.6953125 133.13476562 C84.80585938 132.20341797 83.91640625 131.27207031 83 130.3125 C82.11054688 129.40048828 81.22109375 128.48847656 80.3046875 127.54882812 C78.63873897 125.83936601 76.97798539 124.12481434 75.32421875 122.40356445 C72.91038031 119.90732082 70.45742364 117.45308278 68 115 C66.64789523 113.64811511 65.29591289 112.29610777 63.9440155 110.9440155 C63.17145416 110.17145416 62.39889282 109.39889282 61.60292053 108.60292053 C33.40194702 80.40194702 5.20097351 52.20097351 -23 24 C-22.05829837 22.89829615 -21.11615363 21.79697106 -20.17382812 20.69580078 C-19.64921997 20.0824588 -19.12461182 19.46911682 -18.58410645 18.83718872 C-16.26329538 16.14559692 -13.89295977 13.50242845 -11.5 10.875 C-11.05269531 10.37613281 -10.60539063 9.87726563 -10.14453125 9.36328125 C-6.98189975 5.89254238 -3.65041138 2.93106561 0 0 Z " fill="#DFE6EC" transform="translate(218,158)"/>
<path d="M0 0 C0.66 0 1.32 0 2 0 C3.43721867 1.45833874 3.43721867 1.45833874 5.11061096 3.48149109 C8.94133948 7.9825617 13.02894587 12.14253375 17.23022461 16.29614258 C18.02128601 17.08253113 18.81234741 17.86891968 19.62738037 18.67913818 C21.33084835 20.37216945 23.03541491 22.06409596 24.74098015 23.75501442 C27.43725472 26.42915564 30.12944715 29.10734321 32.82044983 31.78678894 C40.46665504 39.39948538 48.11698996 47.00798724 55.77758789 54.60620117 C60.47368562 59.26414969 65.1619299 63.92991225 69.8458271 68.6001339 C71.63213697 70.37837042 73.42122376 72.1538218 75.21308708 73.92646217 C77.70742292 76.39447507 80.19246998 78.87148762 82.67553711 81.35083008 C83.42194962 82.08488571 84.16836212 82.81894135 84.93739319 83.57524109 C85.60882355 84.24935028 86.28025391 84.92345947 86.97203064 85.61799622 C87.56026076 86.20216214 88.14849089 86.78632807 88.75454617 87.38819599 C90 89 90 89 90 92 C84.29412524 92.57917498 78.58736657 93.14836565 72.87963867 93.70898438 C70.94480637 93.90036435 69.01022503 94.09430183 67.07592773 94.29101562 C34.51379204 97.59698744 34.51379204 97.59698744 28.6875 93.625 C27.42012182 92.45680794 26.19387798 91.24321178 25 90 C23.78570312 88.83984375 23.78570312 88.83984375 22.546875 87.65625 C18.12594905 83.3676871 13.99303195 78.90288363 10 74.21875 C6.81140797 70.68140572 3.40391392 67.36332628 -0.00146484 64.03564453 C-4.93169094 59.18766796 -4.93169094 59.18766796 -5.12718201 55.78872681 C-5.09729155 49.12042303 -4.75216194 42.53923386 -4.16015625 35.8984375 C-4.07374374 34.89535553 -3.98733124 33.89227356 -3.89830017 32.85879517 C-3.7165066 30.76291967 -3.53236596 28.66724652 -3.34594727 26.57177734 C-3.06021262 23.34920242 -2.78453959 20.1258698 -2.50976562 16.90234375 C-2.33132446 14.85932292 -2.15230923 12.81635213 -1.97265625 10.7734375 C-1.89032242 9.80691254 -1.80798859 8.84038757 -1.72315979 7.84457397 C-1.64315231 6.95919952 -1.56314484 6.07382507 -1.48071289 5.16162109 C-1.41187393 4.3798349 -1.34303497 3.59804871 -1.27210999 2.79257202 C-1 1 -1 1 0 0 Z " fill="#66757F" transform="translate(183,221)"/>
<path d="M0 0 C3.4402081 1.14673603 3.81528609 2.15198354 5.66189575 5.08369446 C11.29202221 13.14662569 18.89332026 20.05222323 25.8203125 26.98828125 C26.72321014 27.89450729 27.62610779 28.80073334 28.55636597 29.73442078 C30.44920905 31.63228816 32.34311705 33.52901865 34.23876953 35.42407227 C36.65206605 37.83726656 39.0583657 40.25731265 41.46302986 42.6791048 C43.78592914 45.01585292 46.11607222 47.34535636 48.4453125 49.67578125 C49.29964874 50.53730301 50.15398499 51.39882477 51.03421021 52.28645325 C55.45001373 56.68551093 59.79555384 60.56261433 65 64 C63.36221955 68.19625909 60.26676818 70.98676785 57.1171875 74.078125 C56.54292023 74.64956238 55.96865295 75.22099976 55.37698364 75.80975342 C53.5476419 77.62792945 51.71145807 79.43901492 49.875 81.25 C48.63105226 82.48391329 47.3875573 83.71828322 46.14453125 84.953125 C43.10157633 87.97406743 40.05246746 90.98867092 37 94 C32.93310954 91.78814225 29.96347453 89.18467704 26.7265625 85.88671875 C25.99631363 85.14866753 25.99631363 85.14866753 25.25131226 84.39570618 C23.70432854 82.83102734 22.16422004 81.25981376 20.625 79.6875 C18.59979484 77.62549039 16.57128429 75.56681348 14.5390625 73.51171875 C14.05333771 73.02008743 13.56761292 72.52845612 13.06716919 72.02192688 C9.53080094 68.4687959 5.83653021 65.22066615 2 62 C0.1796875 60.05859375 0.1796875 60.05859375 -1.125 58.4375 C-3.09577495 56.00610014 -5.18535082 53.77222436 -7.41210938 51.57250977 C-9.40629559 49.59763993 -11.3800652 47.60303047 -13.35546875 45.609375 C-14.96608612 43.98952395 -16.57676472 42.3697338 -18.1875 40.75 C-19.00669922 39.92242187 -19.82589844 39.09484375 -20.66992188 38.2421875 C-21.45302734 37.45585938 -22.23613281 36.66953125 -23.04296875 35.859375 C-23.75477295 35.14233398 -24.46657715 34.42529297 -25.19995117 33.68652344 C-26.90424776 31.92904829 -26.90424776 31.92904829 -29 31 C-28.57139146 26.57544108 -25.55056941 24.15258825 -22.5390625 21.2109375 C-21.71950577 20.39419052 -21.71950577 20.39419052 -20.88339233 19.5609436 C-19.72849019 18.41275469 -18.57000032 17.26816477 -17.40820312 16.12695312 C-15.63151346 14.38139931 -13.86569793 12.62541952 -12.1015625 10.8671875 C-10.9771824 9.75197882 -9.85220218 8.63737481 -8.7265625 7.5234375 C-8.19833893 6.99946381 -7.67011536 6.47549011 -7.12588501 5.93563843 C-4.83737373 3.69136078 -2.67702495 1.7846833 0 0 Z " fill="#66757F" transform="translate(386,44)"/>
<path d="M0 0 C3.56982001 3.22983715 6.21194949 5.82504529 7.0078125 10.73828125 C7.23158274 15.65376756 6.81294527 19.79323035 3.984375 23.91015625 C-4.4756717 33.02658589 -21.61750981 31.430434 -33.15429688 31.91308594 C-40.98995154 32.29693785 -48.57284073 33.59964857 -56.27783203 35.01074219 C-60.61768614 35.76453291 -64.99020919 36.29359537 -69.359375 36.84765625 C-72.51154119 37.39887702 -75.35872912 38.31909485 -78.375 39.375 C-85.94502785 40.91990364 -94.63148593 41.66586692 -102 39.125 C-105.47364332 36.56547334 -107.01481862 34.45554414 -108.375 30.375 C-109.1325609 24.28204589 -108.86462704 19.13057138 -105.05714417 14.12153625 C-98.67600832 7.49613201 -84.85102041 7.83302295 -76.12890625 6.67578125 C-74.34960811 6.43401635 -72.57038872 6.19167125 -70.79124451 5.94877625 C-67.07436322 5.44329059 -63.35673317 4.94387267 -59.63842773 4.44897461 C-54.89523177 3.81730773 -50.1540198 3.17197113 -45.41327 2.52222919 C-41.74287893 2.02048951 -38.07162238 1.52533682 -34.40006828 1.03218651 C-32.65248765 0.79680904 -30.90515235 0.55960199 -29.15808296 0.32045937 C-5.91849792 -2.84964715 -5.91849792 -2.84964715 0 0 Z " fill="#67757F" transform="translate(141.375,407.625)"/>
<path d="M0 0 C0.66 0.66 1.32 1.32 2 2 C1.36908447 2.61520508 0.73816895 3.23041016 0.08813477 3.86425781 C-2.25306997 6.15428042 -4.58732657 8.4509498 -6.91723633 10.75244141 C-7.92626019 11.74639553 -8.93796245 12.73763835 -9.95239258 13.72607422 C-11.41162404 15.14884277 -12.86088722 16.58114262 -14.30859375 18.015625 C-15.18314209 18.87446289 -16.05769043 19.73330078 -16.95874023 20.61816406 C-18.90359111 22.88750566 -19.64285557 24.08381239 -20 27 C-20.99 25.68 -21.98 24.36 -23 23 C-22.35933594 22.3709375 -21.71867188 21.741875 -21.05859375 21.09375 C-16.98649536 17.06413252 -12.96409241 13.05260187 -9.25 8.6875 C-6.42013418 5.37366663 -3.43310294 2.67949498 0 0 Z " fill="#D6DEE3" transform="translate(218,158)"/>
</svg>
